<?xml version="1.0" encoding="utf-8"?>
<!-- Generator: Adobe Illustrator 23.0.2, SVG Export Plug-In . SVG Version: 6.00 Build 0)  -->
<svg version="1.1" id="Camada_1" xmlns="http://www.w3.org/2000/svg" xmlns:xlink="http://www.w3.org/1999/xlink" x="0px" y="0px"
	 viewBox="0 0 536 532" style="enable-background:new 0 0 536 532;" xml:space="preserve">
<style type="text/css">
	.st0{opacity:0.03;}
</style>
<g class="st0">
	<path d="M523.05,262.7c0,138.23-112.89,250.25-252.2,250.25c-44.26,0-85.7-11.31-121.91-31.1L9.29,526.21L54.86,391.9
		c-22.95-37.74-36.22-82-36.22-129.2c0-138.23,112.89-250.25,252.2-250.25C410.16,12.45,523.05,124.47,523.05,262.7z M270.84,52.37
		c-116.91,0-212.07,94.4-212.07,210.44c0,46,15.01,88.64,40.35,123.33l-26.43,78.09l81.46-25.88c33.5,21.97,73.63,34.8,116.69,34.8
		c116.91,0,212.07-94.4,212.07-210.44C482.92,146.77,387.76,52.37,270.84,52.37z M398.2,320.34c-1.52-2.5-5.66-4.02-11.85-7.18
		c-6.2-3.05-36.54-17.94-42.2-19.9c-5.66-2.07-9.79-3.05-13.92,3.05c-4.02,6.2-15.88,19.9-19.58,24.03
		c-3.59,4.13-7.18,4.68-13.38,1.63c-6.2-3.15-26.1-9.57-49.7-30.45c-18.38-16.31-30.78-36.32-34.37-42.52
		c-3.59-6.09-0.33-9.46,2.72-12.51c2.72-2.72,6.2-7.18,9.24-10.77c3.05-3.59,4.13-6.09,6.2-10.22c2.07-4.13,0.98-7.72-0.54-10.77
		s-13.92-33.28-19.03-45.57c-5.11-12.29-10.33-10.22-13.92-10.22c-3.59,0-7.72-0.54-11.85-0.54c-4.13,0-10.88,1.52-16.42,7.61
		c-5.66,6.2-21.64,20.99-21.64,51.11c0,30.23,22.08,59.38,25.23,63.4c3.15,4.02,42.74,68.08,105.6,92.66
		c62.86,24.58,62.86,16.31,74.17,15.33c11.31-1.09,36.54-14.79,41.76-29.15C399.72,335.24,399.72,322.95,398.2,320.34z"/>
</g>
</svg>
